<?xml version="1.0" encoding="UTF-8"?>
<svg version="1.1" xmlns="http://www.w3.org/2000/svg" width="120" height="137">
<path d="M0 0 C0.06989728 8.6588094 0.123011 17.31751979 0.15543652 25.97655106 C0.17100899 29.99846706 0.19209068 34.02018825 0.22631836 38.04199219 C0.25921567 41.93237946 0.27691609 45.82258085 0.28463173 49.71309662 C0.29012133 51.18806631 0.30083899 52.66302729 0.31719017 54.13791656 C0.44825087 66.46403123 -0.93502183 77.12486673 -7 88 C-7.66 88 -8.32 88 -9 88 C-9.268125 88.639375 -9.53625 89.27875 -9.8125 89.9375 C-11 92 -11 92 -14 93 C-14 93.66 -14 94.32 -14 95 C-15.6796875 96.5078125 -15.6796875 96.5078125 -17.875 98.125 C-18.59429687 98.66382812 -19.31359375 99.20265625 -20.0546875 99.7578125 C-22 101 -22 101 -24 101 C-24 101.66 -24 102.32 -24 103 C-26.04967534 104.72682185 -28.10116271 106.34312715 -30.25 107.9375 C-31.12978516 108.60168945 -31.12978516 108.60168945 -32.02734375 109.27929688 C-33.68044068 110.52562052 -35.33926934 111.76387607 -37 113 C-37.79921875 113.59941406 -38.5984375 114.19882813 -39.421875 114.81640625 C-39.94265625 115.20699219 -40.4634375 115.59757812 -41 116 C-40.51421457 119.12290635 -40.0013988 121.99580359 -39 125 C-37.18186866 126.12575588 -37.18186866 126.12575588 -35 127 C-33.95392578 127.51240234 -33.95392578 127.51240234 -32.88671875 128.03515625 C-28.18596368 130.23106848 -24.17440032 131.5596255 -19 132 C-21.44839997 134.9638526 -23.2550266 135.43034207 -27 136 C-35.82620759 136.7056339 -44.56683198 136.56181089 -51.65625 130.609375 C-55.68567121 126.15827017 -57 121.96146631 -57 116.0625 C-55.43958217 106.90804875 -45.77169957 101.34365408 -39 96 C-37.27069837 94.60433388 -35.54152547 93.20850823 -33.8125 91.8125 C-31.50714753 89.95358087 -29.22169283 88.1509067 -26.7734375 86.484375 C-20.98708604 82.54012045 -17.27072645 77.7911344 -15.44921875 70.92333984 C-14.83534245 66.92847307 -14.87716682 63.0159247 -14.90234375 58.98046875 C-14.9037587 58.12189774 -14.90517365 57.26332672 -14.90663147 56.3787384 C-14.91220943 53.64828951 -14.92475786 50.91792393 -14.9375 48.1875 C-14.94251785 46.3313814 -14.94708026 44.4752615 -14.95117188 42.61914062 C-14.96217164 38.0793952 -14.97942107 33.5397117 -15 29 C-20.41001213 31.98260176 -20.41001213 31.98260176 -25.40234375 35.59375 C-25.9749292 36.06111572 -26.54751465 36.52848145 -27.13745117 37.01000977 C-27.73146729 37.50170654 -28.3254834 37.99340332 -28.9375 38.5 C-36.28074614 44.48031281 -43.80263023 50.19425499 -51.41943359 55.82080078 C-52.73978365 56.80586268 -54.03874362 57.8195113 -55.33203125 58.83984375 C-57 60 -57 60 -59 60 C-59 60.66 -59 61.32 -59 62 C-60.80078125 63.41015625 -60.80078125 63.41015625 -63.3125 65.0625 C-68.40109268 68.50328877 -73.0740725 72.29882021 -77.75 76.27734375 C-80 78 -80 78 -82 78 C-82.49444515 70.25369259 -80.90000294 63.88011191 -75.8125 57.875 C-69.79910209 51.53789951 -63.12617865 46.25614686 -56.125 41.0625 C-55.45791016 40.56516357 -54.79082031 40.06782715 -54.10351562 39.55541992 C-49.24102007 36 -49.24102007 36 -47 36 C-46.75378906 35.40058594 -46.50757813 34.80117188 -46.25390625 34.18359375 C-44.77256717 31.60394096 -43.42802671 30.67301213 -40.9375 29.0625 C-36.10940888 25.81135375 -31.48310275 22.36386131 -26.875 18.8125 C-25.41288631 17.68994017 -23.950645 16.56754655 -22.48828125 15.4453125 C-21.75174316 14.87973633 -21.01520508 14.31416016 -20.25634766 13.73144531 C-16.53233808 10.8737656 -12.80308072 8.02345957 -9.0625 5.1875 C-8.3823584 4.66583252 -7.7022168 4.14416504 -7.00146484 3.60668945 C-2.22885932 0 -2.22885932 0 0 0 Z " fill="#D7C7ED" transform="translate(102,1)"/>
<path d="M0 0 C0.02918634 4.35415244 0.04686145 8.70827948 0.0625 13.0625 C0.07087891 14.29162109 0.07925781 15.52074219 0.08789062 16.78710938 C0.12046138 28.87085819 -0.50230678 36.43689376 -9.328125 45.3515625 C-15.51545936 51 -15.51545936 51 -18 51 C-18 51.66 -18 52.32 -18 53 C-19.8984375 54.7265625 -19.8984375 54.7265625 -22.375 56.625 C-23.18710937 57.25664063 -23.99921875 57.88828125 -24.8359375 58.5390625 C-27 60 -27 60 -29 60 C-29 60.66 -29 61.32 -29 62 C-33.47058824 66 -33.47058824 66 -36 66 C-36 66.66 -36 67.32 -36 68 C-36.66 68 -37.32 68 -38 68 C-38 68.66 -38 69.32 -38 70 C-38.66 70 -39.32 70 -40 70 C-40.69419563 71.65538958 -41.35103764 73.32636023 -42 75 C-42.27585937 75.66644531 -42.55171875 76.33289063 -42.8359375 77.01953125 C-45.01832426 82.73578281 -45.16680255 87.02735724 -44 93 C-43.814375 94.010625 -43.62875 95.02125 -43.4375 96.0625 C-43.2209375 97.0215625 -43.2209375 97.0215625 -43 98 C-46 98 -46 98 -48.375 96.625 C-53.50367576 91.49632424 -56.28705138 85.6659553 -56.5 78.375 C-56.13187408 71.13519015 -54.11422422 65.27919919 -49 60 C-48.34 60 -47.68 60 -47 60 C-47 59.34 -47 58.68 -47 58 C-46.34 58 -45.68 58 -45 58 C-45 57.34 -45 56.68 -45 56 C-43.15625 54.29296875 -43.15625 54.29296875 -40.5 52.1875 C-39.51128906 51.39214844 -38.52257812 50.59679687 -37.50390625 49.77734375 C-35.65507361 48.30679164 -33.80070053 46.84389705 -31.94091797 45.38720703 C-29.76655939 43.68295351 -27.60216391 41.96654136 -25.4375 40.25 C-24.73496094 39.70754639 -24.03242187 39.16509277 -23.30859375 38.60620117 C-19.69270897 35.73053108 -17.18366321 33.66553382 -16 29 C-30.60568127 39.74529446 -30.60568127 39.74529446 -44.58203125 51.28125 C-45.37996094 51.8484375 -46.17789063 52.415625 -47 53 C-47.99 52.67 -48.98 52.34 -50 52 C-50.54629745 45.71757937 -49.09113945 40.50913679 -46 35 C-38.94165154 27.31712322 -30.29543153 21.13116293 -21.9375 14.9375 C-21.28217285 14.44813965 -20.6268457 13.9587793 -19.95166016 13.45458984 C-15.2388333 10 -15.2388333 10 -13 10 C-13 9.34 -13 8.68 -13 8 C-11.26451831 6.55473264 -9.46024037 5.1912778 -7.625 3.875 C-6.62726563 3.15054688 -5.62953125 2.42609375 -4.6015625 1.6796875 C-2 0 -2 0 0 0 Z " fill="#863B98" transform="translate(83,38)"/>
<path d="M0 0 C0 3 0 3 -1.40625 4.5 C-8.6862804 9.71554416 -16.37148676 10.71177508 -25 12 C-26.94014047 12.33940423 -28.87825521 12.69096618 -30.8125 13.0625 C-31.56144531 13.19785156 -32.31039062 13.33320312 -33.08203125 13.47265625 C-35.30357817 13.97541532 -35.30357817 13.97541532 -38 16 C-38.47886539 18.22696211 -38.47886539 18.22696211 -38.43579102 20.84521484 C-38.45493057 21.85321136 -38.47407013 22.86120789 -38.49378967 23.89974976 C-38.49712814 24.99244171 -38.50046661 26.08513367 -38.50390625 27.2109375 C-38.51389145 28.3306192 -38.52387665 29.4503009 -38.53416443 30.60391235 C-38.54937458 32.97613825 -38.55638933 35.34842851 -38.5559082 37.72070312 C-38.56246201 41.35394013 -38.61689694 44.98443545 -38.67382812 48.6171875 C-38.68263118 50.91926146 -38.68858473 53.22134844 -38.69140625 55.5234375 C-38.7129628 56.61208099 -38.73451935 57.70072449 -38.75672913 58.82235718 C-38.73078805 61.67310185 -38.64813481 64.22382317 -38 67 C-33.99718648 70.81615744 -30.44356135 71.56451509 -25 72 C-24.95758277 74.33294775 -24.95907063 76.66702567 -25 79 C-26 80 -26 80 -29 80.25 C-34.214161 80.14271274 -39.6285692 79.05673857 -43.6484375 75.5703125 C-47.11797788 71.53922801 -48.12065384 68.29335845 -48.16113281 63.10473633 C-48.17554413 61.61222099 -48.17554413 61.61222099 -48.19024658 60.08955383 C-48.19449646 59.01457138 -48.19874634 57.93958893 -48.203125 56.83203125 C-48.20882507 55.72325119 -48.21452515 54.61447113 -48.22039795 53.47209167 C-48.22985061 51.12259882 -48.23638298 48.7730927 -48.24023438 46.42358398 C-48.24991481 42.84399972 -48.28092606 39.26499575 -48.3125 35.68554688 C-48.31903273 33.40104507 -48.32428214 31.11653916 -48.328125 28.83203125 C-48.3404718 27.76716995 -48.3528186 26.70230865 -48.36553955 25.60517883 C-48.34699752 19.3602167 -47.73711246 14.65025151 -45 9 C-38.28278956 3.1987728 -29.67606693 2.50912346 -21.1875 1.375 C-20.25357422 1.2409375 -19.31964844 1.106875 -18.35742188 0.96875 C-12.2006532 0.13132692 -6.2106085 -0.16732895 0 0 Z " fill="#4B2775" transform="translate(48,34)"/>
<path d="M0 0 C1.42261484 0.37389236 2.83801142 0.77529043 4.25 1.1875 C5.03890625 1.40792969 5.8278125 1.62835938 6.640625 1.85546875 C9.77317808 3.37506817 11.05849994 5.12102905 13 8 C13.5146637 10.80076599 13.5146637 10.80076599 13.53344727 13.88842773 C13.5492836 15.04990829 13.56511993 16.21138885 13.58143616 17.4080658 C13.57647629 18.65399002 13.57151642 19.89991425 13.56640625 21.18359375 C13.57570412 23.11598656 13.57570412 23.11598656 13.58518982 25.0874176 C13.59557836 27.81016962 13.59105634 30.53239853 13.57641602 33.25512695 C13.55923772 36.73347671 13.5827157 40.21017301 13.61790562 43.68833828 C13.64523071 47.02018604 13.63513989 50.35163924 13.62890625 53.68359375 C13.64216446 54.92749374 13.65542267 56.17139374 13.66908264 57.45298767 C13.56550665 67.0777317 13.56550665 67.0777317 10.72607422 70.71948242 C4.75082328 75.71812285 -2.49796544 76.47218662 -10.0625 77.125 C-10.87307861 77.20282715 -11.68365723 77.2806543 -12.51879883 77.36083984 C-20.33377866 78.08756669 -28.16257441 78.5892108 -36 79 C-36 76 -36 76 -34.47949219 74.22192383 C-27.94909921 68.75436327 -22.6172903 67.89939251 -14.25 67.6875 C-12.04657387 67.59409111 -9.84341563 67.49407497 -7.640625 67.38671875 C-6.67672852 67.35795654 -5.71283203 67.32919434 -4.71972656 67.29956055 C-1.75532258 66.97305034 0.387825 66.4489318 3 65 C4.02724435 62.0830066 4.14517601 59.29256297 4.19287109 56.21899414 C4.20893402 55.27443863 4.22499695 54.32988312 4.24154663 53.35670471 C4.286163 49.05950835 4.32702535 44.76246158 4.35009766 40.46508789 C4.36668688 38.1983821 4.39401548 35.93172925 4.43212891 33.6652832 C4.48684636 30.39246571 4.50876033 27.12086927 4.5234375 23.84765625 C4.54610687 22.83606949 4.56877625 21.82448273 4.59213257 20.78224182 C4.63495863 14.89779737 4.63495863 14.89779737 1.49072266 10.05639648 C0.66878418 9.37778564 -0.1531543 8.6991748 -1 8 C-1.375 4.25 -1.375 4.25 -1 1 C-0.67 0.67 -0.34 0.34 0 0 Z " fill="#D8CBEA" transform="translate(106,38)"/>
<path d="M0 0 C0.33 1.32 0.66 2.64 1 4 C3.31 4.33 5.62 4.66 8 5 C8 4.34 8 3.68 8 3 C8.66 3.33 9.32 3.66 10 4 C9.67 4.66 9.34 5.32 9 6 C9.66 6.33 10.32 6.66 11 7 C9.23055495 8.46001748 7.45939429 9.91795593 5.6875 11.375 C4.70136719 12.18710938 3.71523437 12.99921875 2.69921875 13.8359375 C0 16 0 16 -3 18 C-2.51421457 21.12290635 -2.0013988 23.99580359 -1 27 C0.81813134 28.12575588 0.81813134 28.12575588 3 29 C4.04607422 29.51240234 4.04607422 29.51240234 5.11328125 30.03515625 C9.81403632 32.23106848 13.82559968 33.5596255 19 34 C16.55160003 36.9638526 14.7449734 37.43034207 11 38 C2.17379241 38.7056339 -6.56683198 38.56181089 -13.65625 32.609375 C-17.68567121 28.15827017 -19 23.96146631 -19 18.0625 C-17.70983212 10.35081472 -10.84405777 5.83773106 -5.05078125 1.28515625 C-3 0 -3 0 0 0 Z " fill="#A288CB" transform="translate(64,99)"/>
<path d="M0 0 C2.69725519 1.88807863 4.13216429 3.19824644 6 6 C8.1385485 8.1385485 9.13275314 8.42655063 12 9 C6.25 14 6.25 14 4 14 C4 14.66 4 15.32 4 16 C-0.47058824 20 -0.47058824 20 -3 20 C-3 20.66 -3 21.32 -3 22 C-3.66 22 -4.32 22 -5 22 C-5 22.66 -5 23.32 -5 24 C-5.66 24 -6.32 24 -7 24 C-7.69419563 25.65538958 -8.35103764 27.32636023 -9 29 C-9.41378906 29.99966797 -9.41378906 29.99966797 -9.8359375 31.01953125 C-12.01832426 36.73578281 -12.16680255 41.02735724 -11 47 C-10.814375 48.010625 -10.62875 49.02125 -10.4375 50.0625 C-10.2209375 51.0215625 -10.2209375 51.0215625 -10 52 C-13 52 -13 52 -15.375 50.625 C-20.50367576 45.49632424 -23.28705138 39.6659553 -23.5 32.375 C-23.13187408 25.13519015 -21.11422422 19.27919919 -16 14 C-15.34 14 -14.68 14 -14 14 C-14 13.34 -14 12.68 -14 12 C-13.34 12 -12.68 12 -12 12 C-12 11.34 -12 10.68 -12 10 C-10.23947136 8.41929472 -8.41580202 6.90833714 -6.5625 5.4375 C-5.55316406 4.63183594 -4.54382813 3.82617188 -3.50390625 2.99609375 C-2.67761719 2.33738281 -1.85132812 1.67867188 -1 1 C-0.67 0.67 -0.34 0.34 0 0 Z " fill="#4B2770" transform="translate(50,84)"/>
<path d="M0 0 C2.31 0.33 4.62 0.66 7 1 C7.46450943 7.50313209 6.32575612 11.4174808 3 17 C2.34 17 1.68 17 1 17 C0.731875 17.639375 0.46375 18.27875 0.1875 18.9375 C-1 21 -1 21 -4 22 C-4 22.66 -4 23.32 -4 24 C-5.6796875 25.5078125 -5.6796875 25.5078125 -7.875 27.125 C-8.59429687 27.66382812 -9.31359375 28.20265625 -10.0546875 28.7578125 C-12 30 -12 30 -14 30 C-14 30.66 -14 31.32 -14 32 C-15.65614657 32.38218767 -17.32457024 32.71395102 -19 33 C-19.33 32.67 -19.66 32.34 -20 32 C-20.556875 32.2475 -21.11375 32.495 -21.6875 32.75 C-24 33 -24 33 -25.59765625 31.95703125 C-27.10552827 30.68443004 -28.55645168 29.34512457 -30 28 C-28.59811431 24.6786093 -27.07390377 23.0063334 -24.1875 20.875 C-23.3934375 20.27945313 -22.599375 19.68390625 -21.78125 19.0703125 C-20.8634375 18.38710937 -19.945625 17.70390625 -19 17 C-16.72359497 15.25721269 -14.45618098 13.50282423 -12.1875 11.75 C-6.22575054 7.15813622 -6.22575054 7.15813622 -3.61328125 5.328125 C-3.08089844 4.88984375 -2.54851562 4.4515625 -2 4 C-2 3.34 -2 2.68 -2 2 C-1.34 2 -0.68 2 0 2 C0 1.34 0 0.68 0 0 Z " fill="#C2AFE3" transform="translate(92,72)"/>
<path d="M0 0 C3.49171665 0.49881666 6.06073923 2.12213895 9 4 C9.61875 3.505 10.2375 3.01 10.875 2.5 C13 1 13 1 15 1 C15 1.66 15 2.32 15 3 C15.66 3.33 16.32 3.66 17 4 C16.25234375 4.54269531 15.5046875 5.08539063 14.734375 5.64453125 C13.74953125 6.35996094 12.7646875 7.07539062 11.75 7.8125 C10.77546875 8.52019531 9.8009375 9.22789063 8.796875 9.95703125 C7.09897708 11.19725557 5.41674819 12.45987162 3.765625 13.76171875 C2 15 2 15 0 15 C0 15.66 0 16.32 0 17 C-1.80078125 18.41015625 -1.80078125 18.41015625 -4.3125 20.0625 C-9.40109268 23.50328877 -14.0740725 27.29882021 -18.75 31.27734375 C-21 33 -21 33 -23 33 C-23.49444515 25.25369259 -21.90000294 18.88011191 -16.8125 12.875 C-6.67130187 2.15369096 -6.67130187 2.15369096 -1 1 C-0.67 0.67 -0.34 0.34 0 0 Z " fill="#A089C7" transform="translate(43,46)"/>
<path d="M0 0 C2 1 2 1 4 3 C4.33 2.01 4.66 1.02 5 0 C5.66 1.98 6.32 3.96 7 6 C8.32 6 9.64 6 11 6 C11 6.66 11 7.32 11 8 C11.66 8.33 12.32 8.66 13 9 C11.96101563 9.7734375 10.92203125 10.546875 9.8515625 11.34375 C-3.14263283 20.96476429 -3.14263283 20.96476429 -15.58203125 31.28125 C-16.77892578 32.13203125 -16.77892578 32.13203125 -18 33 C-18.99 32.67 -19.98 32.34 -21 32 C-21.54629745 25.71757937 -20.09113945 20.50913679 -17 15 C-13.70345073 11.3822485 -10.05721461 8.31635123 -6.25 5.25 C-3.02987225 2.73321911 -3.02987225 2.73321911 0 0 Z " fill="#5F2C7C" transform="translate(54,58)"/>
<path d="M0 0 C0.495 1.98 0.495 1.98 1 4 C1.66 4 2.32 4 3 4 C3.495 5.98 3.495 5.98 4 8 C5.32 8.33 6.64 8.66 8 9 C5.08377998 11.27140739 2.1669457 13.54202463 -0.75 15.8125 C-1.575 16.45509766 -2.4 17.09769531 -3.25 17.75976562 C-4.04921875 18.38173828 -4.8484375 19.00371094 -5.671875 19.64453125 C-6.4050293 20.21534424 -7.13818359 20.78615723 -7.89355469 21.37426758 C-8.58868164 21.91075928 -9.28380859 22.44725098 -10 23 C-10.68739258 23.56420654 -11.37478516 24.12841309 -12.08300781 24.7097168 C-14 26 -14 26 -17 26 C-17 25.34 -17 24.68 -17 24 C-20.72614153 25.11854586 -20.72614153 25.11854586 -23 28 C-25.46800047 26.84826645 -27.04783565 25.95216435 -29 24 C-30.97536745 24.34786708 -30.97536745 24.34786708 -33 25 C-33.99 25 -34.98 25 -36 25 C-34.27744283 23.53386553 -32.54666216 22.07738944 -30.8125 20.625 C-29.84957031 19.81289063 -28.88664062 19.00078125 -27.89453125 18.1640625 C-25.25411774 16.18998816 -23.04374823 15.15748172 -20 14 C-18.65589738 11.98264795 -18.65589738 11.98264795 -18 10 C-17.4225 10.226875 -16.845 10.45375 -16.25 10.6875 C-13.92564546 11.25152496 -13.92564546 11.25152496 -11.9375 9.75 C-9.50439626 7.55235791 -7.24689583 5.26232682 -5 2.875 C-3 1 -3 1 0 0 Z " fill="#C5B0E9" transform="translate(75,23)"/>
<path d="M0 0 C3.60800843 -0.8981638 6.41177294 -1.05650647 10 0 C13.97958136 3.93492968 16.93157018 8.33823874 20 13 C21.53850716 15.33340528 21.53850716 15.33340528 23 17 C23.66 17 24.32 17 25 17 C26.4856249 15.08112225 26.4856249 15.08112225 27.9375 12.6875 C29.76692711 9.78193929 31.54754543 7.39131305 34 5 C34.53625 4.113125 35.0725 3.22625 35.625 2.3125 C38.3904481 -0.38017315 39.04703019 -0.32410806 42.75 -0.3125 C44.16823316 -0.23243845 45.58603027 -0.13595863 47 0 C47 0.66 47 1.32 47 2 C46.34 2 45.68 2 45 2 C45 2.66 45 3.32 45 4 C44.34 4 43.68 4 43 4 C42.75765625 4.52078125 42.5153125 5.0415625 42.265625 5.578125 C34.8828125 19.70572917 34.8828125 19.70572917 27.5078125 22.1640625 C22.50067085 22.45479976 18.72635963 22.23708541 14.57421875 19.26171875 C12.46721581 16.95833495 10.74078498 14.58975841 9 12 C7.71818695 10.32574319 6.42691332 8.65867485 5.125 7 C4.57070313 6.2575 4.01640625 5.515 3.4453125 4.75 C2.10102474 2.88182378 2.10102474 2.88182378 0 2 C0 1.34 0 0.68 0 0 Z " fill="#66327D" transform="translate(28,10)"/>
<path d="M0 0 C2.56622525 2.56622525 2.29733283 3.65042906 2.4140625 7.22265625 C2.45281494 8.30764404 2.49156738 9.39263184 2.53149414 10.51049805 C2.56235107 11.68265869 2.59320801 12.85481934 2.625 14.0625 C2.66294678 15.25721924 2.70089355 16.45193848 2.73999023 17.68286133 C3.09075157 29.78770659 3.10295067 41.89141687 3 54 C4.485 53.505 4.485 53.505 6 53 C6.01981934 51.80922852 6.03963867 50.61845703 6.06005859 49.39160156 C6.13616995 44.97081468 6.22487894 40.55035457 6.31738281 36.12988281 C6.35564968 34.21718805 6.39050658 32.30442189 6.421875 30.39160156 C6.46757527 27.64101658 6.52556145 24.89092217 6.5859375 22.140625 C6.59748871 21.28631897 6.60903992 20.43201294 6.62094116 19.55181885 C6.64081085 18.75129089 6.66068054 17.95076294 6.68115234 17.12597656 C6.69447601 16.42426331 6.70779968 15.72255005 6.7215271 14.99957275 C7.04434665 12.68156921 7.85873038 11.02866316 9 9 C8.99887207 10.22106445 8.99774414 11.44212891 8.99658203 12.70019531 C9.00025461 17.23305674 9.04305682 21.76485265 9.09765625 26.29736328 C9.11581845 28.2585565 9.12338434 30.21987775 9.12011719 32.18115234 C9.11726065 35.00198462 9.15256677 37.82016055 9.1953125 40.640625 C9.18621857 41.51680481 9.17712463 42.39298462 9.16775513 43.29571533 C9.2245137 45.6758363 9.34153614 47.71163176 10 50 C14.08764006 53.69458408 17.56267077 54.56501366 23 55 C23.04241723 57.33294775 23.04092937 59.66702567 23 62 C22 63 22 63 19 63.25 C13.785839 63.14271274 8.3714308 62.05673857 4.3515625 58.5703125 C0.83188034 54.4809708 -0.1265119 51.23732033 -0.11352539 45.9777832 C-0.11344986 44.95695145 -0.11337433 43.93611969 -0.11329651 42.88435364 C-0.10813522 41.78427475 -0.10297394 40.68419586 -0.09765625 39.55078125 C-0.0962413 38.4230278 -0.09482635 37.29527435 -0.09336853 36.13334656 C-0.0877647 32.52637088 -0.07521153 28.91945696 -0.0625 25.3125 C-0.05748549 22.86914152 -0.0529225 20.42578207 -0.04882812 17.98242188 C-0.03779403 11.98826013 -0.02105215 5.99413448 0 0 Z " fill="#462671" transform="translate(0,51)"/>
<path d="M0 0 C2 2 2 2 2.125 4.625 C2.08375 5.40875 2.0425 6.1925 2 7 C0.02 7.99 0.02 7.99 -2 9 C-0.68 9 0.64 9 2 9 C2.66 9 3.32 9 4 9 C4.33 10.32 4.66 11.64 5 13 C5.66 13 6.32 13 7 13 C7 12.34 7 11.68 7 11 C8.32 11 9.64 11 11 11 C11 9.68 11 8.36 11 7 C11.99 6.67 12.98 6.34 14 6 C12.71201965 10.7433685 10.96892901 13.60471892 7.625 17.1875 C6.46871094 18.44626953 6.46871094 18.44626953 5.2890625 19.73046875 C-0.02581756 25 -0.02581756 25 -3 25 C-3 25.66 -3 26.32 -3 27 C-5.64 27.66 -8.28 28.32 -11 29 C-11.33 28.34 -11.66 27.68 -12 27 C-12.66 27.33 -13.32 27.66 -14 28 C-16 22.375 -16 22.375 -16 19 C-14.74658203 17.66894531 -14.74658203 17.66894531 -13.0078125 16.328125 C-12.38519531 15.82796875 -11.76257812 15.3278125 -11.12109375 14.8125 C-9.80277955 13.78055151 -8.47992308 12.75437654 -7.15234375 11.734375 C-2.69754244 8.13379332 -1.01182621 5.67192721 0 0 Z " fill="#672F7F" transform="translate(68,64)"/>
<path d="M0 0 C0.495 1.485 0.495 1.485 1 3 C3.39719432 3.67958603 3.39719432 3.67958603 6 4 C6.66 3.34 7.32 2.68 8 2 C8.495 3.485 8.495 3.485 9 5 C-0.42249103 10.60256224 -12.02560549 10.4506863 -22.6875 11.125 C-23.97333984 11.21136719 -25.25917969 11.29773438 -26.58398438 11.38671875 C-29.72233196 11.5967197 -32.86093711 11.80102954 -36 12 C-36 9 -36 9 -34.48608398 7.22631836 C-27.92721468 1.73228175 -22.46818539 0.84122255 -14.0625 0.5625 C-12.92748047 0.49869141 -11.79246094 0.43488281 -10.62304688 0.36914062 C-7.08235854 0.17701025 -3.54639255 0 0 0 Z " fill="#C7B5E4" transform="translate(106,105)"/>
<path d="M0 0 C1.13797842 2.19467267 2.09108988 4.27326963 2.875 6.625 C4.24957591 9.52688247 5.13417876 9.72234257 8 11 C8.69738281 11.34160156 9.39476563 11.68320313 10.11328125 12.03515625 C14.81403632 14.23106848 18.82559968 15.5596255 24 16 C21.55160003 18.9638526 19.7449734 19.43034207 16 20 C7.72555074 20.66152216 0.22950786 20.43445649 -7 16 C-9.04515864 14.10290714 -10.41536375 12.32413317 -12 10 C-11.34 9.67 -10.68 9.34 -10 9 C-9.67 8.34 -9.34 7.68 -9 7 C-8.67 7.33 -8.34 7.66 -8 8 C-7.67 6.68 -7.34 5.36 -7 4 C-2.25 2.875 -2.25 2.875 0 4 C0 2.68 0 1.36 0 0 Z " fill="#987DC7" transform="translate(59,117)"/>
<path d="M0 0 C0 3 0 3 -1.546875 4.640625 C-7.41674698 8.92854567 -10.9733026 9.28613227 -18.07421875 8.23046875 C-21.8916675 7.92976184 -24.46190656 8.95532637 -27.953125 10.36328125 C-31.22373534 11.38066576 -33.70810625 10.77044322 -37 10 C-37 9.01 -37 8.02 -37 7 C-36.34 7 -35.68 7 -35 7 C-34.67 6.01 -34.34 5.02 -34 4 C-22.77369962 1.56849715 -11.52285376 -0.47790638 0 0 Z " fill="#76358A" transform="translate(48,34)"/>
<path d="M0 0 C1.68991979 0.9601817 3.36209288 1.95355934 5 3 C5.61875 2.505 6.2375 2.01 6.875 1.5 C9 0 9 0 11 0 C11 0.66 11 1.32 11 2 C11.66 2.33 12.32 2.66 13 3 C5.31707317 8.85365854 5.31707317 8.85365854 0.0625 9.4375 C-3 9 -3 9 -5 8 C-9.82612943 7.72156946 -13.49907826 8.24354273 -18 10 C-14.93455944 6.05871928 -12.50847313 3.3120375 -8 1 C-7.319375 0.5875 -6.63875 0.175 -5.9375 -0.25 C-3.44208827 -1.21596583 -2.47677443 -0.97569902 0 0 Z " fill="#B19ADC" transform="translate(47,47)"/>
<path d="M0 0 C1.41823316 0.08006155 2.83603027 0.17654137 4.25 0.3125 C4.25 0.9725 4.25 1.6325 4.25 2.3125 C3.59 2.3125 2.93 2.3125 2.25 2.3125 C2.25 2.9725 2.25 3.6325 2.25 4.3125 C1.59 4.3125 0.93 4.3125 0.25 4.3125 C-0.01039062 4.87453125 -0.27078125 5.4365625 -0.5390625 6.015625 C-1.8769468 8.55328941 -3.40629452 10.76588918 -5.125 13.0625 C-5.71023437 13.86171875 -6.29546875 14.6609375 -6.8984375 15.484375 C-8.75 17.3125 -8.75 17.3125 -12.75 17.3125 C-12.75 18.3025 -12.75 19.2925 -12.75 20.3125 C-14.07 19.6525 -15.39 18.9925 -16.75 18.3125 C-15.93184393 12.99448557 -12.53389036 8.93872826 -8.75 5.3125 C-8.21375 4.425625 -7.6775 3.53875 -7.125 2.625 C-4.3595519 -0.06767315 -3.70296981 -0.01160806 0 0 Z " fill="#7B4989" transform="translate(70.75,9.6875)"/>
<path d="M0 0 C-0.33 0.66 -0.66 1.32 -1 2 C-1.66 2 -2.32 2 -3 2 C-3 2.99 -3 3.98 -3 5 C1.61072187 5.30738146 5.07559293 4.76029711 9.5 3.375 C14.50798859 1.88987235 17.2177377 1.98082258 22 4 C22 4.33 22 4.66 22 5 C21.13834229 5.11275269 21.13834229 5.11275269 20.25927734 5.2277832 C17.6295737 5.57828672 15.00241461 5.94524664 12.375 6.3125 C11.01955078 6.48942383 11.01955078 6.48942383 9.63671875 6.66992188 C2.38210473 7.64429417 2.38210473 7.64429417 -4 11 C-5.1571286 14.38668871 -5.1571286 14.38668871 -5.375 18.1875 C-5.50648437 19.45980469 -5.63796875 20.73210938 -5.7734375 22.04296875 C-5.84820313 23.01878906 -5.92296875 23.99460937 -6 25 C-6.33 25 -6.66 25 -7 25 C-7 20.05 -7 15.1 -7 10 C-7.66 10 -8.32 10 -9 10 C-9 9.34 -9 8.68 -9 8 C-9.66 8 -10.32 8 -11 8 C-11 5.75 -11 5.75 -10 3 C-3.37579618 -1.68789809 -3.37579618 -1.68789809 0 0 Z " fill="#62337C" transform="translate(14,39)"/>
<path d="M0 0 C2 2 2 2 2.125 4.625 C2.08375 5.40875 2.0425 6.1925 2 7 C0.02 7.99 0.02 7.99 -2 9 C-0.68 9 0.64 9 2 9 C2.66 9 3.32 9 4 9 C4.33 10.32 4.66 11.64 5 13 C5.66 13 6.32 13 7 13 C7 12.34 7 11.68 7 11 C8.32 11 9.64 11 11 11 C11 9.68 11 8.36 11 7 C11.99 6.67 12.98 6.34 14 6 C12.70399308 12.31803372 8.59336975 16.69371586 4 21 C3.34 21 2.68 21 2 21 C2 20.34 2 19.68 2 19 C1.34 18.67 0.68 18.34 0 18 C-2.125 16.0625 -2.125 16.0625 -4 14 C-4 13.34 -4 12.68 -4 12 C-4.66 11.67 -5.32 11.34 -6 11 C-5.195625 10.113125 -4.39125 9.22625 -3.5625 8.3125 C-1.2960841 5.61712968 -0.31582634 3.57936522 0 0 Z " fill="#743786" transform="translate(68,64)"/>
<path d="M0 0 C3.62367124 1.11497577 7.0143084 2.4505519 10.4375 4.0625 C14.35769454 5.84984294 17.71929555 6.63568473 22 7 C19.55155731 9.96390431 17.74979985 10.44330702 14 11 C11.85635873 11.11536492 9.70920611 11.17485744 7.5625 11.1875 C6.47066406 11.20167969 5.37882812 11.21585938 4.25390625 11.23046875 C0.86664623 10.99055478 -1.83858571 10.20639188 -5 9 C-5 8.34 -5 7.68 -5 7 C-1.7 7 1.6 7 5 7 C3.0745356 4.7763932 3.0745356 4.7763932 0 4 C0 2.68 0 1.36 0 0 Z " fill="#9F8EBE" transform="translate(61,126)"/>
<path d="M0 0 C2.56622525 2.56622525 2.29733283 3.65042906 2.4140625 7.22265625 C2.45281494 8.30764404 2.49156738 9.39263184 2.53149414 10.51049805 C2.56235107 11.68265869 2.59320801 12.85481934 2.625 14.0625 C2.66294678 15.25721924 2.70089355 16.45193848 2.73999023 17.68286133 C3.09075157 29.78770659 3.10295067 41.89141687 3 54 C3.66 54 4.32 54 5 54 C5.33 54.99 5.66 55.98 6 57 C5.01 57 4.02 57 3 57 C-0.72829479 51.29790209 -0.38801314 45.91537057 -0.29296875 39.2578125 C-0.28872391 38.13430389 -0.28447906 37.01079529 -0.28010559 35.85324097 C-0.2633589 32.27691337 -0.22571296 28.70115631 -0.1875 25.125 C-0.17244803 22.69532066 -0.15876052 20.26563245 -0.14648438 17.8359375 C-0.11346846 11.89043146 -0.0633085 5.9452565 0 0 Z " fill="#351F53" transform="translate(0,51)"/>
<path d="M0 0 C0.33 1.32 0.66 2.64 1 4 C1.66 4 2.32 4 3 4 C3.33 5.32 3.66 6.64 4 8 C5.32 8.33 6.64 8.66 8 9 C6.59627198 10.20276695 5.17647903 11.38680519 3.75 12.5625 C2.56664063 13.55443359 2.56664063 13.55443359 1.359375 14.56640625 C-1 16 -1 16 -3.296875 15.71484375 C-3.85890625 15.47894531 -4.4209375 15.24304687 -5 15 C-4.67 14.01 -4.34 13.02 -4 12 C-4.66 12 -5.32 12 -6 12 C-6.33 9.36 -6.66 6.72 -7 4 C-6.01 3.67 -5.02 3.34 -4 3 C-3.67 2.34 -3.34 1.68 -3 1 C-2.01 0.67 -1.02 0.34 0 0 Z " fill="#C9B8E4" transform="translate(75,23)"/>
<path d="M0 0 C0.05826088 4.3749437 0.09368457 8.74978698 0.125 13.125 C0.14175781 14.3625 0.15851563 15.6 0.17578125 16.875 C0.18222656 18.07382812 0.18867187 19.27265625 0.1953125 20.5078125 C0.20578613 21.60754395 0.21625977 22.70727539 0.22705078 23.84033203 C-0.01326299 27.18456942 -0.81090663 29.87708695 -2 33 C-2.33 33 -2.66 33 -3 33 C-2.98428955 32.01604248 -2.98428955 32.01604248 -2.96826172 31.01220703 C-2.92677497 28.04984342 -2.90069738 25.08754084 -2.875 22.125 C-2.85824219 21.09246094 -2.84148437 20.05992188 -2.82421875 18.99609375 C-2.81777344 18.00996094 -2.81132813 17.02382813 -2.8046875 16.0078125 C-2.79421387 15.09660645 -2.78374023 14.18540039 -2.77294922 13.24658203 C-2.78129007 10.79709564 -2.78129007 10.79709564 -5 9 C-6.9931567 8.97624074 -6.9931567 8.97624074 -9.125 9.375 C-10.40375 9.58125 -11.6825 9.7875 -13 10 C-13 9.34 -13 8.68 -13 8 C-11.26451831 6.55473264 -9.46024037 5.1912778 -7.625 3.875 C-6.62726563 3.15054688 -5.62953125 2.42609375 -4.6015625 1.6796875 C-2 0 -2 0 0 0 Z " fill="#844F8E" transform="translate(83,38)"/>
<path d="M0 0 C0.33 1.32 0.66 2.64 1 4 C3.31 4.33 5.62 4.66 8 5 C8 4.34 8 3.68 8 3 C8.66 3.33 9.32 3.66 10 4 C9.67 4.66 9.34 5.32 9 6 C9.66 6.33 10.32 6.66 11 7 C8.64031256 9.09749995 7.45383006 9.96905704 4.25 10.1875 C3.5075 10.125625 2.765 10.06375 2 10 C2.33 9.01 2.66 8.02 3 7 C2.01 7 1.02 7 0 7 C-0.66 8.32 -1.32 9.64 -2 11 C-2.99 11 -3.98 11 -5 11 C-5 10.34 -5 9.68 -5 9 C-7.475 8.01 -7.475 8.01 -10 7 C-4.34042553 0 -4.34042553 0 0 0 Z " fill="#A78FCF" transform="translate(64,99)"/>
<path d="M0 0 C0 2 0 4 0 6 C-0.66 6 -1.32 6 -2 6 C-2 7.32 -2 8.64 -2 10 C-2.66 10 -3.32 10 -4 10 C-4 10.66 -4 11.32 -4 12 C-5.32 12.33 -6.64 12.66 -8 13 C-8.33 12.34 -8.66 11.68 -9 11 C-9.99 11 -10.98 11 -12 11 C-12.33 11.99 -12.66 12.98 -13 14 C-21.8 22 -21.8 22 -26 22 C-24.51181739 18.22550333 -22.4948093 16.65089366 -19.1875 14.375 C-14.64439083 11.18156782 -10.20210719 7.8989919 -5.8125 4.5 C-5.23588623 4.05446777 -4.65927246 3.60893555 -4.06518555 3.14990234 C-2.70913493 2.10121222 -1.35441482 1.05080196 0 0 Z " fill="#E0D2F4" transform="translate(84,13)"/>
<path d="M0 0 C0.33 0.99 0.66 1.98 1 3 C7.6 3 14.2 3 21 3 C21 3.33 21 3.66 21 4 C9.34045234 5.3053624 -2.28213196 6.38582209 -14 7 C-14 4 -14 4 -12.0625 1.8125 C-7.95142865 -0.62058305 -4.6603705 -0.36551926 0 0 Z " fill="#B19FD0" transform="translate(84,110)"/>
<path d="M0 0 C5.80054339 1.52450179 9.67635324 2.65326391 13 8 C12.67 8.66 12.34 9.32 12 10 C11.34 10 10.68 10 10 10 C10 9.34 10 8.68 10 8 C9.01 8 8.02 8 7 8 C6.34 9.65 5.68 11.3 5 13 C0.79514019 10.10915888 0.79514019 10.10915888 -1 8 C-1.4375 4.25 -1.4375 4.25 -1 1 C-0.67 0.67 -0.34 0.34 0 0 Z " fill="#CEC4DE" transform="translate(106,38)"/>
<path d="M0 0 C3 1 3 1 4 3 C6.52733235 3.65555119 6.52733235 3.65555119 9 4 C5.23225289 7.88192126 1.37202211 11.79531881 -3 15 C-3.66 15 -4.32 15 -5 15 C-5 12.69 -5 10.38 -5 8 C-3.68 7.34 -2.36 6.68 -1 6 C-1.020625 5.195625 -1.04125 4.39125 -1.0625 3.5625 C-1 1 -1 1 0 0 Z " fill="#9B7DCA" transform="translate(25,64)"/>
<path d="M0 0 C0.33 0 0.66 0 1 0 C1 13.86 1 27.72 1 42 C-2 39 -2 39 -2.26464844 35.51000977 C-2.22900403 34.06998618 -2.17613732 32.63032294 -2.109375 31.19140625 C-2.08530579 30.42827621 -2.06123657 29.66514618 -2.03643799 28.87889099 C-1.98280707 27.26560427 -1.9218112 25.652548 -1.85400391 24.03979492 C-1.75055234 21.57565625 -1.66814632 19.11153807 -1.58984375 16.64648438 C-1.535083 15.07808161 -1.47913271 13.50971984 -1.421875 11.94140625 C-1.39575134 11.20588028 -1.36962769 10.47035431 -1.3427124 9.71253967 C-1.19903437 6.36289297 -1.01132298 3.21068982 0 0 Z " fill="#41285C" transform="translate(8,60)"/>
<path d="M0 0 C3.1640625 -0.38671875 3.1640625 -0.38671875 7 0 C9.2118637 2.080858 10.68500921 3.74727966 12.375 6.1875 C13.03048828 7.0547168 13.03048828 7.0547168 13.69921875 7.93945312 C16.09323699 11.219184 17.58702573 13.93908633 18 18 C16.35 18 14.7 18 13 18 C12 15 12 15 11.5625 12.5625 C10.81591052 9.03817431 10.81591052 9.03817431 9 6 C5.45411499 4.70079254 5.45411499 4.70079254 2 4 C2 3.01 2 2.02 2 1 C1.34 0.67 0.68 0.34 0 0 Z " fill="#754489" transform="translate(31,10)"/>
<path d="M0 0 C-3.63616656 1.9789756 -6.88425629 2.5251065 -11 3 C-11.33 4.32 -11.66 5.64 -12 7 C-11.34 7.33 -10.68 7.66 -10 8 C-17.75 7.25 -17.75 7.25 -20 5 C-22.32275177 4.59952556 -24.65739357 4.2602896 -27 4 C-25.9453125 2.54296875 -25.9453125 2.54296875 -24 1 C-20.7421875 0.48828125 -20.7421875 0.48828125 -16.875 0.3125 C-16.20718506 0.27906494 -15.53937012 0.24562988 -14.85131836 0.21118164 C-9.89745631 -0.01941162 -4.95747727 -0.08697329 0 0 Z " fill="#D2C0EF" transform="translate(103,106)"/>
<path d="M0 0 C1 3 1 3 0 5.875 C-1.70928296 11.31894915 -1.33646333 17.50821102 0 23 C1.85816125 24.40855775 1.85816125 24.40855775 4 25 C4.66 25.33 5.32 25.66 6 26 C6.33 26.99 6.66 27.98 7 29 C7.66 28.67 8.32 28.34 9 28 C9.33 29.65 9.66 31.3 10 33 C7 33 7 33 4.625 31.625 C-0.50367576 26.49632424 -3.28705138 20.6659553 -3.5 13.375 C-3.27378515 8.40534249 -2.04373788 4.51325449 0 0 Z " fill="#3B255F" transform="translate(30,103)"/>
<path d="M0 0 C1.39375072 4.18125215 -0.26978574 6.05511149 -2 10 C-2 11.32 -2 12.64 -2 14 C-0.68 13.67 0.64 13.34 2 13 C1.67 12.34 1.34 11.68 1 11 C2.65 11.33 4.3 11.66 6 12 C1 18.57142857 1 18.57142857 -4 20 C-5.77502459 15.2666011 -4.94145981 10.25031858 -3.0390625 5.703125 C-2.07292813 3.77085627 -1.07224219 1.87517705 0 0 Z " fill="#472868" transform="translate(38,71)"/>
<path d="M0 0 C2.0625 1.6875 2.0625 1.6875 4 4 C3.75 6.75 3.75 6.75 3 9 C2.34 9 1.68 9 1 9 C1.33 9.99 1.66 10.98 2 12 C-0.31 13.65 -2.62 15.3 -5 17 C-5.66 16.67 -6.32 16.34 -7 16 C-6.401875 15.030625 -5.80375 14.06125 -5.1875 13.0625 C-2.7964999 8.91015819 -1.3691995 4.57437105 0 0 Z " fill="#D2C0EF" transform="translate(89,65)"/>
<path d="M0 0 C3.3 0 6.6 0 10 0 C10 0.99 10 1.98 10 3 C6.33270059 6.3494668 2.48863917 8.78347067 -2.4375 9.5 C-5 9 -5 9 -7 7 C-4.36 6.67 -1.72 6.34 1 6 C1.33 4.35 1.66 2.7 2 1 C1.34 0.67 0.68 0.34 0 0 Z " fill="#703982" transform="translate(38,34)"/>
<path d="M0 0 C4.875 0.875 4.875 0.875 6 2 C6.14115161 4.67058851 6.04247107 7.32432238 6 10 C3.37886292 10 1.49064888 9.68707555 -1 9 C-1.80967438 6.08517222 -2.21845993 4.53886783 -1.0625 1.6875 C-0.711875 1.130625 -0.36125 0.57375 0 0 Z " fill="#E1D5F3" transform="translate(113,46)"/>
<path d="M0 0 C2 2 2 2 2.125 4.625 C2.08375 5.40875 2.0425 6.1925 2 7 C3.65 7.33 5.3 7.66 7 8 C7 8.99 7 9.98 7 11 C5.58318366 10.68817931 4.16655349 10.37551263 2.75 10.0625 C1.56664062 9.80146484 1.56664062 9.80146484 0.359375 9.53515625 C-1.76878703 9.052444 -3.88532842 8.53836822 -6 8 C-6 6.68 -6 5.36 -6 4 C-4.35 4 -2.7 4 -1 4 C-0.67 2.68 -0.34 1.36 0 0 Z " fill="#9D80CD" transform="translate(59,123)"/>
<path d="M0 0 C-0.1875 2.875 -0.1875 2.875 -1 6 C-3.5 7.125 -3.5 7.125 -6 8 C-6.88693303 10.04105639 -6.88693303 10.04105639 -7 12 C-7.33 11.34 -7.66 10.68 -8 10 C-8.66 10 -9.32 10 -10 10 C-10 8.68 -10 7.36 -10 6 C-9.34 6 -8.68 6 -8 6 C-7.938125 5.38125 -7.87625 4.7625 -7.8125 4.125 C-7 2 -7 2 -4.5625 0.75 C-2 0 -2 0 0 0 Z " fill="#9B7FCB" transform="translate(55,111)"/>
<path d="M0 0 C0 0.66 0 1.32 0 2 C0.66 2.33 1.32 2.66 2 3 C0.59447701 4.03612271 -0.82491694 5.05344925 -2.25 6.0625 C-3.43335938 6.91521484 -3.43335938 6.91521484 -4.640625 7.78515625 C-7 9 -7 9 -9.296875 8.68359375 C-9.85890625 8.45800781 -10.4209375 8.23242188 -11 8 C-11.33 6.35 -11.66 4.7 -12 3 C-11.0925 3.061875 -10.185 3.12375 -9.25 3.1875 C-5.26355168 2.9575126 -3.59194126 0 0 0 Z " fill="#BBA6DC" transform="translate(58,47)"/>
<path d="M0 0 C0.66 0.33 1.32 0.66 2 1 C2 1.66 2 2.32 2 3 C3.65 3.33 5.3 3.66 7 4 C7.33 3.34 7.66 2.68 8 2 C10.9719385 3.12451727 13.33440687 4.22293791 16 6 C16 5.01 16 4.02 16 3 C16.99 3.33 17.98 3.66 19 4 C18.01 5.485 18.01 5.485 17 7 C13.8828125 7.43359375 13.8828125 7.43359375 10.125 7.4375 C8.27261719 7.46650391 8.27261719 7.46650391 6.3828125 7.49609375 C2.5183236 6.92936154 1.37524223 6.01381237 -1 3 C-0.67 2.01 -0.34 1.02 0 0 Z " fill="#522D64" transform="translate(42,24)"/>
<path d="M0 0 C1.53202706 0.25195908 3.05257128 0.57596777 4.5625 0.9375 C5.80193359 1.22947266 5.80193359 1.22947266 7.06640625 1.52734375 C7.70449219 1.68332031 8.34257813 1.83929688 9 2 C9 2.33 9 2.66 9 3 C8.43079834 3.07516846 7.86159668 3.15033691 7.27514648 3.2277832 C4.66108686 3.57899686 2.04940624 3.94562847 -0.5625 4.3125 C-1.45775391 4.43044922 -2.35300781 4.54839844 -3.27539062 4.66992188 C-8.66318235 5.43960641 -13.10705305 6.60386548 -18 9 C-18 8.01 -18 7.02 -18 6 C-14.55707703 3.70471802 -11.92016888 3.2307518 -7.875 2.4375 C-3.61258681 1.92948623 -3.61258681 1.92948623 0 0 Z " fill="#4A2863" transform="translate(27,41)"/>
<path d="M0 0 C0.66 0 1.32 0 2 0 C2.66 2.64 3.32 5.28 4 8 C2.35 8.33 0.7 8.66 -1 9 C-1 9.99 -1 10.98 -1 12 C-2.32 11.34 -3.64 10.68 -5 10 C-4.38479725 6.00118212 -2.39731331 3.19641774 0 0 Z " fill="#733B88" transform="translate(59,18)"/>
<path d="M0 0 C0 3.3 0 6.6 0 10 C-0.99 9.34 -1.98 8.68 -3 8 C-5.06910593 7.97250522 -5.06910593 7.97250522 -7.1875 8.375 C-8.445625 8.58125 -9.70375 8.7875 -11 9 C-11 8.34 -11 7.68 -11 7 C-8.84765625 5.2734375 -8.84765625 5.2734375 -6.0625 3.375 C-5.14597656 2.74335937 -4.22945313 2.11171875 -3.28515625 1.4609375 C-1 0 -1 0 0 0 Z " fill="#9947A7" transform="translate(81,39)"/>
<path d="M0 0 C0.99 0.33 1.98 0.66 3 1 C4.22393475 3.95784231 3.96516243 5.99727245 3 9 C0.03 8.505 0.03 8.505 -3 8 C-3.33 6.35 -3.66 4.7 -4 3 C-3.01 2.67 -2.02 2.34 -1 2 C-0.67 1.34 -0.34 0.68 0 0 Z " fill="#D1C1EB" transform="translate(110,101)"/>
<path d="M0 0 C2.97 0 5.94 0 9 0 C9 0.66 9 1.32 9 2 C8.34 2 7.68 2 7 2 C7 2.66 7 3.32 7 4 C6.38125 4.12375 5.7625 4.2475 5.125 4.375 C2.80879168 4.87197356 2.80879168 4.87197356 1 7 C0.34 6.34 -0.32 5.68 -1 5 C-0.625 2.375 -0.625 2.375 0 0 Z " fill="#8C619B" transform="translate(66,10)"/>
<path d="M0 0 C0.66 0.66 1.32 1.32 2 2 C-2.146171 6.38309505 -5.93299833 9.87648117 -12 11 C-10.50253294 7.11002809 -8.29577922 5.53051948 -4.875 3.25 C-3.50988281 2.32960938 -3.50988281 2.32960938 -2.1171875 1.390625 C-1.06917969 0.70226562 -1.06917969 0.70226562 0 0 Z " fill="#D7C7F0" transform="translate(70,24)"/>
<path d="M0 0 C0.33 0 0.66 0 1 0 C1.8320582 5.72040011 2.12036664 11.22240116 2 17 C2.66 17 3.32 17 4 17 C4.33 17.99 4.66 18.98 5 20 C4.01 20 3.02 20 2 20 C-0.03120707 16.95318939 -0.24659875 16.39881676 -0.1953125 12.98828125 C-0.18886719 12.23095703 -0.18242187 11.47363281 -0.17578125 10.69335938 C-0.15902344 9.90767578 -0.14226563 9.12199219 -0.125 8.3125 C-0.11597656 7.51521484 -0.10695312 6.71792969 -0.09765625 5.89648438 C-0.07411585 3.930861 -0.03824547 1.96539225 0 0 Z " fill="#3A235F" transform="translate(1,88)"/>
<path d="M0 0 C0.99 0 1.98 0 3 0 C3 0.66 3 1.32 3 2 C3.99 2.66 4.98 3.32 6 4 C3.69 5.65 1.38 7.3 -1 9 C-1.625 6.1875 -1.625 6.1875 -2 3 C-1.34 2.01 -0.68 1.02 0 0 Z " fill="#9B84BE" transform="translate(64,106)"/>
<path d="M0 0 C0.99 0.33 1.98 0.66 3 1 C2.401875 1.433125 1.80375 1.86625 1.1875 2.3125 C-1.97653046 4.7533235 -3.71798938 6.15396813 -5 10 C-7.0625 10.6875 -7.0625 10.6875 -9 11 C-9.33 10.34 -9.66 9.68 -10 9 C-3.73362445 2.55458515 -3.73362445 2.55458515 0 0 Z " fill="#793C8A" transform="translate(65,50)"/>
<path d="M0 0 C1.625 2 1.625 2 3 4 C-1.75 8 -1.75 8 -4 8 C-4 5.69 -4 3.38 -4 1 C-2 0 -2 0 0 0 Z " fill="#8B7AA7" transform="translate(24,71)"/>
<path d="M0 0 C0.66 0.99 1.32 1.98 2 3 C1.125 6.1875 1.125 6.1875 0 9 C-3 8 -3 8 -3.9375 6.1875 C-4 4 -4 4 -2.0625 1.75 C-1.381875 1.1725 -0.70125 0.595 0 0 Z M2 1 C4 2 4 2 4 2 Z " fill="#B69DE0" transform="translate(68,95)"/>
<path d="M0 0 C1.98 0 3.96 0 6 0 C6 0.99 6 1.98 6 3 C6.62648438 2.97679688 7.25296875 2.95359375 7.8984375 2.9296875 C8.71570312 2.91164063 9.53296875 2.89359375 10.375 2.875 C11.18710937 2.85179688 11.99921875 2.82859375 12.8359375 2.8046875 C15 3 15 3 17 5 C11.22772713 5.36844295 6.2769839 4.46863195 1 2 C0.67 1.34 0.34 0.68 0 0 Z " fill="#321F56" transform="translate(5,109)"/>
<path d="M0 0 C2.84550012 0.66010476 5.52325999 1.51724966 8.25 2.5625 C8.95640625 2.83191406 9.6628125 3.10132813 10.390625 3.37890625 C10.92171875 3.58386719 11.4528125 3.78882813 12 4 C10.3125 5.125 10.3125 5.125 8 6 C3.99439553 5.0230233 2.18366003 3.44788426 0 0 Z " fill="#8B78AD" transform="translate(48,128)"/>
<path d="M0 0 C0.66 0.33 1.32 0.66 2 1 C2 1.66 2 2.32 2 3 C0.02053408 4.36363208 -1.9819245 5.69418644 -4 7 C-5.79394446 8.62351109 -5.79394446 8.62351109 -7 10 C-7 6 -7 6 -5.46875 4.296875 C-4.8190625 3.78640625 -4.169375 3.2759375 -3.5 2.75 C-2.8503125 2.22921875 -2.200625 1.7084375 -1.53125 1.171875 C-0.77328125 0.59179688 -0.77328125 0.59179688 0 0 Z " fill="#582C75" transform="translate(50,84)"/>
<path d="M0 0 C0.33 0.99 0.66 1.98 1 3 C0.0409375 3.1546875 0.0409375 3.1546875 -0.9375 3.3125 C-1.618125 3.539375 -2.29875 3.76625 -3 4 C-3.33 4.99 -3.66 5.98 -4 7 C-7.0625 8.1875 -7.0625 8.1875 -10 9 C-10 8.34 -10 7.68 -10 7 C-7.8125 5.2734375 -7.8125 5.2734375 -5 3.375 C-4.071875 2.74335937 -3.14375 2.11171875 -2.1875 1.4609375 C-1.1046875 0.73777344 -1.1046875 0.73777344 0 0 Z " fill="#9152A1" transform="translate(80,39)"/>
<path d="M0 0 C1.65 0 3.3 0 5 0 C5 2.31 5 4.62 5 7 C4.34 7 3.68 7 3 7 C2.87625 6.030625 2.7525 5.06125 2.625 4.0625 C2.41875 3.051875 2.2125 2.04125 2 1 C1.34 0.67 0.68 0.34 0 0 Z M-1 3 C-0.01 3.33 0.98 3.66 2 4 C1.01 4.33 0.02 4.66 -1 5 C-1 4.34 -1 3.68 -1 3 Z " fill="#513576" transform="translate(18,106)"/>
<path d="M0 0 C0.99 0.33 1.98 0.66 3 1 C0.25604436 3.94721162 -2.38337216 6.19168608 -6 8 C-6.66 7.67 -7.32 7.34 -8 7 C-6.74057614 5.80040625 -5.46704714 4.61560557 -4.1875 3.4375 C-3.12595703 2.44556641 -3.12595703 2.44556641 -2.04296875 1.43359375 C-1.36878906 0.96050781 -0.69460937 0.48742188 0 0 Z " fill="#C7AEE3" transform="translate(47,41)"/>
<path d="M0 0 C1.98 0.66 3.96 1.32 6 2 C4.35 3.65 2.7 5.3 1 7 C-1 4 -1 4 -0.625 1.8125 C-0.41875 1.214375 -0.2125 0.61625 0 0 Z " fill="#AA99C2" transform="translate(60,42)"/>
<path d="M0 0 C0 0.33 0 0.66 0 1 C-4.95 1 -9.9 1 -15 1 C-15 0.67 -15 0.34 -15 0 C-9.46245077 -2.55579195 -5.61036424 -1.62077189 0 0 Z " fill="#5C2A6D" transform="translate(36,43)"/>
<path d="M0 0 C1.98 0 3.96 0 6 0 C6.99 1.98 7.98 3.96 9 6 C6.69 5.34 4.38 4.68 2 4 C2 3.01 2 2.02 2 1 C1.34 0.67 0.68 0.34 0 0 Z " fill="#7D4694" transform="translate(31,10)"/>
<path d="M0 0 C3.16717283 1.58358642 4.73268318 2.45263699 6.3125 5.6875 C6.539375 6.450625 6.76625 7.21375 7 8 C6.01 8 5.02 8 4 8 C4 7.34 4 6.68 4 6 C3.34 6 2.68 6 2 6 C2 5.01 2 4.02 2 3 C1.34 3 0.68 3 0 3 C0 2.01 0 1.02 0 0 Z " fill="#BEB5CE" transform="translate(112,40)"/>
<path d="M0 0 C0.66 1.32 1.32 2.64 2 4 C-0.35968744 6.09749995 -1.54616994 6.96905704 -4.75 7.1875 C-5.86375 7.0946875 -5.86375 7.0946875 -7 7 C-5.625 5.5 -5.625 5.5 -4 4 C-3.34 4 -2.68 4 -2 4 C-1.34 2.68 -0.68 1.36 0 0 Z " fill="#C1B2DE" transform="translate(57,33)"/>
<path d="M0 0 C1.32 0.99 2.64 1.98 4 3 C3.67 4.65 3.34 6.3 3 8 C2.01 7.67 1.02 7.34 0 7 C0.33 6.01 0.66 5.02 1 4 C0.34 4 -0.32 4 -1 4 C-0.67 2.68 -0.34 1.36 0 0 Z " fill="#D6C5F0" transform="translate(70,31)"/>
<path d="M0 0 C1.1434356 2.20519723 2.13225922 4.35544665 3 6.6875 C3.77234179 9.15427599 3.77234179 9.15427599 6 10 C3.61435923 9.42415568 1.33317216 8.77772405 -1 8 C-0.67 5.36 -0.34 2.72 0 0 Z " fill="#9586B1" transform="translate(59,117)"/>
<path d="M0 0 C1 3 1 3 0 6 C-1.65 6.33 -3.3 6.66 -5 7 C-3.75023244 3.34683329 -3.32901247 2.21934164 0 0 Z " fill="#E5D9F4" transform="translate(100,1)"/>
<path d="M0 0 C0.78375 0.185625 1.5675 0.37125 2.375 0.5625 C4.97089775 1.25962266 4.97089775 1.25962266 7 0 C7.33 1.65 7.66 3.3 8 5 C5 5 5 5 2.3125 2.5 C1.549375 1.675 0.78625 0.85 0 0 Z " fill="#36264F" transform="translate(32,131)"/>
<path d="M0 0 C5.28 0.33 10.56 0.66 16 1 C16 1.33 16 1.66 16 2 C8.08 2.495 8.08 2.495 0 3 C0 2.01 0 1.02 0 0 Z " fill="#746987" transform="translate(70,114)"/>
<path d="M0 0 C1.2065625 0.0309375 1.2065625 0.0309375 2.4375 0.0625 C-2.3125 4.9375 -2.3125 4.9375 -4.5625 6.0625 C-3.48963568 0.08511307 -3.48963568 0.08511307 0 0 Z " fill="#8876AA" transform="translate(31.5625,67.9375)"/>
<path d="M0 0 C-2.64 1.65 -5.28 3.3 -8 5 C-8 4.01 -8 3.02 -8 2 C-7.34 2 -6.68 2 -6 2 C-6 1.34 -6 0.68 -6 0 C-4 -1 -4 -1 0 0 Z " fill="#8C82A8" transform="translate(60,50)"/>
<path d="M0 0 C0.66 0 1.32 0 2 0 C2 0.66 2 1.32 2 2 C2.66 2.33 3.32 2.66 4 3 C3.34 3 2.68 3 2 3 C1.67 4.32 1.34 5.64 1 7 C0.34 6.34 -0.32 5.68 -1 5 C-0.625 2.375 -0.625 2.375 0 0 Z " fill="#8E509F" transform="translate(66,10)"/>
<path d="M0 0 C-0.33 1.65 -0.66 3.3 -1 5 C-1.99 5 -2.98 5 -4 5 C-4 3.68 -4 2.36 -4 1 C-2 0 -2 0 0 0 Z " fill="#863F94" transform="translate(65,16)"/>
<path d="M0 0 C0.33 0 0.66 0 1 0 C1.33 2.31 1.66 4.62 2 7 C1.01 7.495 1.01 7.495 0 8 C0 7.34 0 6.68 0 6 C-0.66 6 -1.32 6 -2 6 C-2 4.68 -2 3.36 -2 2 C-1.34 2 -0.68 2 0 2 C0 1.34 0 0.68 0 0 Z " fill="#9683BA" transform="translate(47,115)"/>
<path d="M0 0 C0.33 0.66 0.66 1.32 1 2 C3.01669827 3.13350534 3.01669827 3.13350534 5 4 C4.34 4 3.68 4 3 4 C3 4.66 3 5.32 3 6 C2.01 6.33 1.02 6.66 0 7 C0 4.69 0 2.38 0 0 Z " fill="#A290C0" transform="translate(75,98)"/>
<path d="M0 0 C0.8971875 0.5259375 0.8971875 0.5259375 1.8125 1.0625 C4.10813214 2.33304698 4.10813214 2.33304698 7 1 C6.67 1.99 6.34 2.98 6 4 C4.02 4 2.04 4 0 4 C0 2.68 0 1.36 0 0 Z " fill="#563079" transform="translate(46,97)"/>
<path d="M0 0 C1.65 0 3.3 0 5 0 C3.35 1.65 1.7 3.3 0 5 C-0.33 4.01 -0.66 3.02 -1 2 C-0.67 1.34 -0.34 0.68 0 0 Z " fill="#592B68" transform="translate(56,70)"/>
<path d="M0 0 C0.66 1.32 1.32 2.64 2 4 C-0.475 5.485 -0.475 5.485 -3 7 C-2.25 2.25 -2.25 2.25 0 0 Z " fill="#A893CF" transform="translate(26,59)"/>
<path d="M0 0 C2.475 0.495 2.475 0.495 5 1 C5.33 2.98 5.66 4.96 6 7 C3.95880212 5.38405168 1.95927063 3.7143618 0 2 C0 1.34 0 0.68 0 0 Z " fill="#503267" transform="translate(28,10)"/>
</svg>
